# xmcd
# 
# Track frame offsets:
#   150
#   13621
#   29626
#   44025
#   61960
#   74431
#   89711
#   104708
#   119101
#   129543
#   146758
#   160882
#   176146
#   188241
# 
# Disc length: 2691 seconds
# 
# Revision: 0
# Processed by: cddbd v1.5.1PL2 Copyright (c) Steve Scherf et al.
# Submitted via: Synapstar 1.0 
# 
DISCID=e20a810e
DTITLE=Various Artist - sd star disc
DYEAR=1900
DGENRE=Country
TTITLE0=john michael montgomery - that's what i like about you
TTITLE1=faith hill - if my heart had wings
TTITLE2=vince gill - shoot straight from your heart
TTITLE3=terri clark - no fear
TTITLE4=kenny rogers - there you go again
TTITLE5=billy raycyrus - burn down thw trailer park
TTITLE6=brad paisley&chely wright - hard to be a husband hard to be a wife
TTITLE7=clay davidson - sometimes
TTITLE8=rascal flats - walk the llama llama
TTITLE9=montgomery gentry - she could'nt change me
TTITLE10=merideth edwards - a rose is a rose
TTITLE11=neal mccoy - beatin' it in
TTITLE12=billy yates - what do you want from me now
TTITLE13=tracy lawerence - unforgiven
EXTD=MediaType: Karaoke CD+G Producer: StarDisc
EXTT0=
EXTT1=
EXTT2=
EXTT3=
EXTT4=
EXTT5=
EXTT6=
EXTT7=
EXTT8=
EXTT9=
EXTT10=
EXTT11=
EXTT12=
EXTT13=
PLAYORDER=
